<svg xmlns="http://www.w3.org/2000/svg" width="24" height="24" viewBox="0 0 32 32"><defs><clipPath clipPathUnits="userSpaceOnUse" id="a"><path d="M0 24h24V0H0z"/></clipPath><clipPath clipPathUnits="userSpaceOnUse" id="b"><path d="M0 48h48V0H0z"/></clipPath></defs><path d="M28.82293 16.28816c0-.90634-.07348-1.81757-.23025-2.7092H16.0167v5.13425h7.20167c-.29885 1.6559-1.25907 3.12072-2.6651 4.05155v3.33138h4.2965c2.52303-2.32217 3.97316-5.75153 3.97316-9.80798z" fill="#4285f4"/><path d="M16.0167 29.31485c3.59593 0 6.62847-1.18068 8.83797-3.2187l-4.29651-3.3314c-1.19538.81326-2.7386 1.27377-4.53656 1.27377-3.47836 0-6.42761-2.34666-7.48582-5.50168H4.1021v3.43427c2.26338 4.50226 6.87343 7.34374 11.9146 7.34374z" fill="#34a853"/><path d="M8.53088 18.53684a7.98613 7.98613 0 010-5.10486V9.99772H4.1021c-1.89105 3.7674-1.89105 8.20598 0 11.97339z" fill="#fbbc04"/><path d="M16.0167 7.9254c1.90085-.0294 3.738.68587 5.11465 1.99883l3.8066-3.8066C22.5276 3.85426 19.3285 2.60989 16.0167 2.64909c-5.04117 0-9.65122 2.84147-11.9146 7.34864l4.42878 3.43426c1.0533-3.15991 4.00746-5.50658 7.48582-5.50658z" fill="#ea4335"/></svg>